/* XPM */
static char * gpe_xpm[] = {
"128 128 9 1",
" 	c None",
".	c #E50505",
"+	c #E60505",
"@	c #E60606",
"#	c #E50606",
"$	c #E50404",
"%	c #E40505",
"&	c #E60404",
"*	c #E40606",
"                                                                                                                                ",
"                                                                                                                                ",
"                                                                                                                                ",
"                                                                                                                                ",
"                                                                                                                                ",
"                                                                                                                                ",
"                                                                                                                                ",
"                                                                                                                                ",
"                                                                                                                                ",
"                                                                                                                                ",
"                                                                                                                                ",
"                                                                                                                                ",
"                                                                                                                                ",
"                                                                                                                                ",
"                                                                                                                                ",
"                                                                                                                                ",
"                                                                                                                                ",
"                                                                                                                                ",
"                                                                                                                                ",
"                                                                                                                                ",
"                                                                                                                                ",
"                                                                                                                                ",
"                                                                                                                                ",
"                                                                                                                                ",
"                                                                                                                                ",
"                                                                                                                                ",
"                                                                                                                                ",
"                                                                                                                                ",
"                                                                                                                                ",
"                                                                                                                                ",
"                                                                                                                                ",
"                                                                                                                                ",
"                                                                                                                                ",
"                                                                                                                                ",
"                                                                                                                                ",
"                                                                                                                                ",
"                                                                                                                                ",
"                                                                                                                                ",
"                                                                                                                                ",
"                                                                                                                                ",
"                                                                                                                                ",
"                                                                                                                                ",
"                                                                                                                                ",
"                             ......+.@.@#                                                                                       ",
"                         ..................+               ...................+              .......................+           ",
"                      #........................            .......................$          .......................#           ",
"                    %............................          .........................         .......................#           ",
"                  +..........+$        .+.........         .........      +..........        .......................#           ",
"                 ...........$             @......          .........       ...........       .......................&           ",
"                ..........&                ......          .........        +.........#      .........                          ",
"               ..........                    ....          .........         ..........      .........                          ",
"              ..........                      ..           .........         +.........@     .........                          ",
"             ..........                        .           .........          ..........     .........                          ",
"             .........@                                    .........          ..........     .........                          ",
"            +.........                                     .........          ..........     .........                          ",
"           #.........#                                     .........          ..........     .........                          ",
"           ..........                                      .........          ..........     .........                          ",
"           ..........                                      .........          ..........     .........                          ",
"          ..........                                       .........          ..........     .........                          ",
"          .........$                                       .........          .........      .........                          ",
"          ..........                                       .........         %........$      .........                          ",
"         @.........                                        .........         .........       .........                          ",
"         ..........                                        .........        .........#       .......................            ",
"         ..........                                        .........       ..........        .......................            ",
"         $.........                                        .........     $..........         .......................            ",
"         +.........                                        .......................           .......................            ",
"         +.........                                        ....................%             .......................            ",
"         +.........                                        ..............$.##                .........                          ",
"         ..........                      ....+....         .........                         .........                          ",
"         %.........                      .........         .........                         .........                          ",
"         #.........                      .........         .........                         .........                          ",
"         %.........#                     .........         .........                         .........                          ",
"          .........+                     .........         .........                         .........                          ",
"          ..........                     .........         .........                         .........                          ",
"          $.........                     .........         .........                         .........                          ",
"           ..........                    .........         .........                         .........                          ",
"           ..........                    .........         .........                         .........                          ",
"            .........$                   .........         .........                         .........                          ",
"            ...........                  .........         .........                         .........                          ",
"             ..........                  .........         .........                         .........                          ",
"              $.........                 .........         .........                         .........                          ",
"               ...........               .........         .........                         .........                          ",
"                ...........              .........         .........                         .......................%           ",
"                 .............         %..........         .........                         .......................@           ",
"                   ...............................         .........                         .......................#           ",
"                     .............................         .........                         .......................*           ",
"                       #......................             +######*+                         ........................           ",
"                            ..+.......+.$                                                                                       ",
"                                                                                                                                ",
"                                                                                                                                ",
"                                                                                                                                ",
"                                                                                                                                ",
"                                                                                                                                ",
"                                                                                                                                ",
"                                                                                                                                ",
"                                                                                                                                ",
"                                                                                                                                ",
"                                                                                                                                ",
"                                                                                                                                ",
"                                                                                                                                ",
"                                                                                                                                ",
"                                                                                                                                ",
"                                                                                                                                ",
"                                                                                                                                ",
"                                                                                                                                ",
"                                                                                                                                ",
"                                                                                                                                ",
"                                                                                                                                ",
"                                                                                                                                ",
"                                                                                                                                ",
"                                                                                                                                ",
"                                                                                                                                ",
"                                                                                                                                ",
"                                                                                                                                ",
"                                                                                                                                ",
"                                                                                                                                ",
"                                                                                                                                ",
"                                                                                                                                ",
"                                                                                                                                ",
"                                                                                                                                ",
"                                                                                                                                ",
"                                                                                                                                ",
"                                                                                                                                ",
"                                                                                                                                ",
"                                                                                                                                ",
"                                                                                                                                ",
"                                                                                                                                ",
"                                                                                                                                "};
