/* XPM */
static char * kettle_64px_xpm[] = {
"64 64 358 2",
"  	c None",
". 	c #000000",
"+ 	c #040405",
"@ 	c #313338",
"# 	c #626771",
"$ 	c #787E8A",
"% 	c #89909D",
"& 	c #9AA2B1",
"* 	c #9FA7B6",
"= 	c #8E95A3",
"- 	c #7E8490",
"; 	c #6C717C",
"> 	c #41454B",
", 	c #0E0E10",
"' 	c #26282C",
") 	c #757B86",
"! 	c #A6AFBF",
"~ 	c #AFB8C9",
"{ 	c #AEB7C7",
"] 	c #868D9A",
"^ 	c #43474D",
"/ 	c #030303",
"( 	c #202225",
"_ 	c #7B818D",
": 	c #ABB4C5",
"< 	c #A0A9B9",
"[ 	c #9AA3B3",
"} 	c #969FAF",
"| 	c #939CAB",
"1 	c #929BAA",
"2 	c #959EAE",
"3 	c #99A2B1",
"4 	c #9DA6B6",
"5 	c #A7B0C1",
"6 	c #969DAC",
"7 	c #3E4147",
"8 	c #010101",
"9 	c #575C64",
"0 	c #AEB7C8",
"a 	c #8C95A4",
"b 	c #8F98A8",
"c 	c #9BA4B4",
"d 	c #838A97",
"e 	c #0E0F10",
"f 	c #0A0B0C",
"g 	c #7A808C",
"h 	c #A2ABBC",
"i 	c #9099A8",
"j 	c #8992A1",
"k 	c #676D78",
"l 	c #42464D",
"m 	c #31353A",
"n 	c #232529",
"o 	c #1F2125",
"p 	c #2D3035",
"q 	c #3B3F45",
"r 	c #595F68",
"s 	c #828A98",
"t 	c #8D96A5",
"u 	c #9CA5B5",
"v 	c #ADB6C6",
"w 	c #222427",
"x 	c #0B0B0D",
"y 	c #9198A6",
"z 	c #ADB6C7",
"A 	c #97A0AF",
"B 	c #858D9C",
"C 	c #3D4147",
"D 	c #080809",
"E 	c #25272B",
"F 	c #747B88",
"G 	c #A8B1C2",
"H 	c #A9B2C2",
"I 	c #2A2C30",
"J 	c #848B97",
"K 	c #AAB3C4",
"L 	c #616772",
"M 	c #0F1012",
"N 	c #44484F",
"O 	c #88919F",
"P 	c #A4ADBD",
"Q 	c #A3ACBC",
"R 	c #1C1E20",
"S 	c #727883",
"T 	c #ACB5C6",
"U 	c #7E8693",
"V 	c #151619",
"W 	c #69707B",
"X 	c #A5AEBE",
"Y 	c #0F1011",
"Z 	c #3A3D42",
"` 	c #949DAD",
" .	c #7E8694",
"..	c #0C0D0E",
"+.	c #5E646E",
"@.	c #8E97A6",
"#.	c #AAB3C3",
"$.	c #717681",
"%.	c #060607",
"&.	c #8B94A3",
"*.	c #24262A",
"=.	c #08090A",
"-.	c #7A828F",
";.	c #919AAA",
">.	c #292B2F",
",.	c #585C65",
"'.	c #484D54",
").	c #1E2023",
"!.	c #8A93A1",
"~.	c #020202",
"{.	c #9FA7B7",
"].	c #98A1B0",
"^.	c #6B727D",
"/.	c #41454C",
"(.	c #8F98A7",
"_.	c #313439",
":.	c #121315",
"<.	c #707783",
"[.	c #9FA8B8",
"}.	c #686E78",
"|.	c #666D78",
"1.	c #383C42",
"2.	c #949DAC",
"3.	c #A3ABBB",
"4.	c #A0A8B8",
"5.	c #32353B",
"6.	c #87909E",
"7.	c #27292D",
"8.	c #6D747F",
"9.	c #282A2E",
"0.	c #848C9A",
"a.	c #565C65",
"b.	c #5F646D",
"c.	c #6D737D",
"d.	c #575D66",
"e.	c #464B52",
"f.	c #2A2D32",
"g.	c #616670",
"h.	c #494D54",
"i.	c #17191B",
"j.	c #585E68",
"k.	c #6D7480",
"l.	c #535962",
"m.	c #7D8593",
"n.	c #4B4F57",
"o.	c #5C626B",
"p.	c #1D1F22",
"q.	c #090804",
"r.	c #1F1A0E",
"s.	c #131008",
"t.	c #010100",
"u.	c #5F512A",
"v.	c #A58D49",
"w.	c #D4B55E",
"x.	c #F9D46F",
"y.	c #FCD770",
"z.	c #E3C265",
"A.	c #B59A50",
"B.	c #816E3A",
"C.	c #2F2815",
"D.	c #C5A857",
"E.	c #E8C667",
"F.	c #5E502A",
"G.	c #5D4F29",
"H.	c #A78E4A",
"I.	c #F4D06C",
"J.	c #766434",
"K.	c #0E0C06",
"L.	c #DABA61",
"M.	c #3F361C",
"N.	c #17120C",
"O.	c #B2875B",
"P.	c #CC9B69",
"Q.	c #CA9967",
"R.	c #463524",
"S.	c #66572D",
"T.	c #B79C51",
"U.	c #1A130D",
"V.	c #B98C5E",
"W.	c #D3A06C",
"X.	c #D09D6A",
"Y.	c #B38C20",
"Z.	c #FFC82D",
"`.	c #F9C32C",
" +	c #0E0B02",
".+	c #C39464",
"++	c #090701",
"@+	c #F6C028",
"#+	c #FFC729",
"$+	c #56430E",
"%+	c #AB8258",
"&+	c #050401",
"*+	c #1F1805",
"=+	c #AB851B",
"-+	c #967518",
";+	c #100C03",
">+	c #25282C",
",+	c #79818E",
"'+	c #40444B",
")+	c #8F7447",
"!+	c #F0C377",
"~+	c #78623C",
"{+	c #1F2124",
"]+	c #747C88",
"^+	c #4A4F57",
"/+	c #A47C54",
"(+	c #1C1E21",
"_+	c #6F5439",
":+	c #AC8459",
"<+	c #BA956C",
"[+	c #BE9972",
"}+	c #D9B082",
"|+	c #EABD8C",
"1+	c #D6AD80",
"2+	c #A78764",
"3+	c #0E0C09",
"4+	c #020203",
"5+	c #6F7682",
"6+	c #896846",
"7+	c #050606",
"8+	c #686E7A",
"9+	c #705539",
"0+	c #D5A26E",
"a+	c #E5B785",
"b+	c #B8956E",
"c+	c #0D0A08",
"d+	c #191A1D",
"e+	c #6E5338",
"f+	c #453322",
"g+	c #6A5036",
"h+	c #D4A26E",
"i+	c #E5B786",
"j+	c #DEB385",
"k+	c #C59F76",
"l+	c #B4916C",
"m+	c #0B0907",
"n+	c #523E2A",
"o+	c #B8824F",
"p+	c #372516",
"q+	c #634B33",
"r+	c #E2B380",
"s+	c #E4B989",
"t+	c #3D3225",
"u+	c #14100C",
"v+	c #C49F75",
"w+	c #B08E69",
"x+	c #070604",
"y+	c #16100B",
"z+	c #C58F5C",
"A+	c #B27946",
"B+	c #342314",
"C+	c #2D2217",
"D+	c #D19F6B",
"E+	c #D9A875",
"F+	c #DDB384",
"G+	c #32291E",
"H+	c #120F0B",
"I+	c #796248",
"J+	c #8F6D49",
"K+	c #CE9A66",
"L+	c #B37A47",
"M+	c #835934",
"N+	c #020201",
"O+	c #AA8157",
"P+	c #D4A16D",
"Q+	c #E7B988",
"R+	c #DCB284",
"S+	c #C9A278",
"T+	c #C6A077",
"U+	c #E9BC8B",
"V+	c #251E16",
"W+	c #382B1D",
"X+	c #B9814E",
"Y+	c #B17845",
"Z+	c #22170D",
"`+	c #5B452F",
" @	c #E0B07E",
".@	c #907456",
"+@	c #8A6F52",
"@@	c #AE8D68",
"#@	c #9A754F",
"$@	c #CB9663",
"%@	c #704C2C",
"&@	c #C89866",
"*@	c #D6A470",
"=@	c #7F664C",
"-@	c #0E0B08",
";@	c #D4AB7F",
">@	c #544433",
",@	c #110D09",
"'@	c #BD9061",
")@	c #BE8754",
"!@	c #271B0F",
"~@	c #71563A",
"{@	c #DEAE7B",
"]@	c #E1B687",
"^@	c #16120D",
"/@	c #5A4936",
"(@	c #C7A177",
"_@	c #32261A",
":@	c #D19E6A",
"<@	c #B37B47",
"[@	c #9E6C3E",
"}@	c #010000",
"|@	c #BA8D5F",
"1@	c #E6B887",
"2@	c #866C50",
"3@	c #D9AF82",
"4@	c #2E251B",
"5@	c #3B2D1E",
"6@	c #B78656",
"7@	c #654428",
"8@	c #312519",
"9@	c #D8A672",
"0@	c #E4B888",
"a@	c #1B1510",
"b@	c #7E664B",
"c@	c #80674C",
"d@	c #161009",
"e@	c #8E6138",
"f@	c #2A1C10",
"g@	c #7A5C3E",
"h@	c #8D7255",
"i@	c #261E17",
"j@	c #CFA87C",
"k@	c #050302",
"l@	c #C19263",
"m@	c #E7B987",
"n@	c #D5AC7F",
"o@	c #352B20",
"p@	c #120E09",
"q@	c #13100C",
"r@	c #9D7F5E",
"s@	c #5E4C38",
"t@	c #291F15",
"u@	c #D5A36F",
"v@	c #382D21",
"w@	c #6A553F",
"x@	c #776047",
"y@	c #413221",
"z@	c #D8A673",
"A@	c #5D4B37",
"B@	c #544332",
"C@	c #927657",
"D@	c #59442E",
"E@	c #DAA976",
"F@	c #81694D",
"G@	c #423528",
"H@	c #AD8B67",
"I@	c #DDAD7A",
"J@	c #3A2F23",
"K@	c #604E3A",
"L@	c #765A3D",
"M@	c #CDA57A",
"N@	c #DDAC79",
"O@	c #CAA277",
"P@	c #C69665",
"Q@	c #AD8359",
"                                                                  . . . . . . . . .                                             ",
"                                                            . . . . . . . . . . . . . . .                                       ",
"                                                        . . . + @ # $ % & * = - ; > , . . . .                                   ",
"                                                    . . . ' ) ! ~ ~ ~ ~ ~ ~ ~ ~ ~ ~ { ] ^ / . . .                               ",
"                                                . . . ( _ ~ ~ ~ : < [ } | 1 2 3 4 5 ~ ~ ~ 6 7 8 . .                             ",
"                                              . . 8 9 0 ~ 0 < | a a a a a a a a a a b c : ~ ~ d e . .                           ",
"                                            . . f g ~ ~ h i a a j k l m n o p q r s a a t u v ~ & w . .                         ",
"                                          . . x y ~ z A a a B C D . . . . . . . . 8 E F a a i G ~ H I . .                       ",
"                                          . + J ~ K 1 a a L M . . . .         . . . . / N O a t P ~ Q R . .                     ",
"                                        . . S ~ T i a U p . . .                     . . . V W a a X ~ & Y .                     ",
"                                      . . Z ~ 0 ` a  .... .                             . . 8 +.a @.#.~ $.. .                   ",
"                                      . %.& ~ c a &.*.. .                                 . . =.-.a ;.0 ~ >.. .                 ",
"                                    . . ,.~ K t a '.. .                                     . . ).!.a < ~ = 8 .                 ",
"                                    . ~.{.~ ].a ^.~..                                         . . /.a (.z ~ >..                 ",
"                                    . _.~ K a &.:.. .                                           . 8 <.a [.~ }.. .               ",
"                                  . . $.~ [.a |.. .                                             . . 1.a 2.~ 3.+ .               ",
"                                  . . 4.~ 2.a 5.. .                                               . D 6.a T ~ 7..               ",
"                                  . ..~ z a a M .                                                 . . 8.a Q ~ ^ .               ",
"                                  . 9.~ K a 0.. .                                                 . . a.a [.~ b.. .             ",
"                                  . 7.c.}.d.e.. .                                                 . . f.d.g.c.h.. .             ",
"                                  . . . . . . . .                     . . . . .                     . . . . . . . .             ",
"                                  . . . . . . . .                   . . f i.. . .                   . . . . . . . .             ",
"                                      . .                         . . _.O a j.. .                         . . .                 ",
"                                    . . .                         . . k.a a &.e .                           . .                 ",
"                                    . .                           . . l.a a m.~..                           . .                 ",
"                                    . .                           . . ..n.o.p.. .                             . .               ",
"                                  . .                     . . . . . . . . . . . . . . . .                     . .               ",
"                                  . .                 . . . . . q.r.r.r.r.r.r.r.r.s.. . . . .                 . . .             ",
"                                . . .               . . t.u.v.w.x.y.y.y.y.y.y.y.y.y.z.A.B.s.. .                 . .             ",
"                                . .               . . C.D.y.y.y.y.y.y.y.y.y.y.y.y.y.y.y.y.E.F.. .               . .             ",
"                                . .             . . G.x.y.y.y.y.y.y.y.y.y.y.y.y.y.y.y.y.y.y.y.H.t..             . .             ",
"  . . . . . . . .               . .           . . C.I.y.y.y.y.y.y.y.y.y.y.y.y.y.y.y.y.y.y.y.y.y.J.. .           . .             ",
"  . . . . . . . . .             . .           . K.L.y.y.y.y.y.y.y.y.y.y.y.y.y.y.y.y.y.y.y.y.y.y.x.M.. .         . .             ",
"  . . N.O.P.P.Q.R.. .           . .         . . S.y.y.y.y.y.y.y.y.y.y.y.y.y.y.y.y.y.y.y.y.y.y.y.y.T.. .           . .           ",
"    . . U.V.W.W.X.R.. .         . .         . . Y.Z.Z.Z.Z.Z.Z.Z.Z.Z.Z.Z.Z.Z.Z.Z.Z.Z.Z.Z.Z.Z.Z.Z.Z.`. +.           . .           ",
"      . . U..+W.W.X.R.. .     . . . .       . ++@+#+#+#+#+#+#+#+#+#+#+#+#+#+#+#+#+#+#+#+#+#+#+#+#+#+$+.       . . . .           ",
"        . . %+W.W.W.X.R.. .   . . . . .     . &+*+*+*+*+*+*+*+*+*+*+*+*+*+*+*+*+*+*+*+*+=+#+#+#+-+*+;+. .   . . . . .           ",
"        . . %+W.W.W.W.X.R.. . . >+,+'+. . . . . . . . . . . . . . . . . . . . . . . . . )+!+!+!+~+. . . . . . {+]+^+. .         ",
"        . . /+W.W.W.W.W.X.R.. . '+a a (+. . _+:+<+[+[+[+[+[+[+[+[+[+[+[+[+[+[+[+[+[+[+[+}+|+|+|+1+[+[+2+3+. 4+,+a 5+. .         ",
"        . . 6+W.W.W.W.W.W.X.R.. 7+8+l . . 9+0+a+|+|+|+|+|+|+|+|+|+|+|+|+|+|+|+|+|+|+|+|+|+|+|+|+|+|+|+|+b+c+. p.-.d+. .         ",
"        . . e+W.W.W.W.W.W.W.X.f+. / . . g+h+i+|+|+|+|+|+|+|+|+|+|+|+|+|+|+|+|+|+|+|+|+|+|+|+|+|+|+|+j+k+|+l+m+. / . .           ",
"          . n+W.W.W.W.W.W.W.W.o+p+. . q+W.r+|+|+|+|+|+|+|+|+|+|+|+|+|+|+|+|+|+|+|+|+|+|+|+|+|+|+|+s+t+u+v+|+w+x+. .             ",
"          . y+X.W.W.W.W.W.W.z+A+B+. C+D+E+|+|+|+|+|+|+|+|+|+|+|+|+|+|+|+|+|+|+|+|+|+|+|+|+|+|+|+|+F+G+H+b+|+|+I+. .             ",
"          . . J+W.W.W.W.W.K+L+M+. N+O+P+Q+|+|+|+|+|+|+|+|+|+|+|+|+|+|+|+|+|+|+|+|+|+|+|+|+|+|+|+|+|+R+S+|+T+U+s+V+. .           ",
"            . W+W.W.W.W.W.X+Y+Z+. `+W. @|+|+|+|+|+|+|+|+|+|+|+|+|+|+|+|+|+|+|+|+|+|+|+|+|+|+|+|+|+|+|+|+.@x++@|+@@. .           ",
"            . t.#@W.W.W.$@A+%@. y+&@*@|+|+|+|+|+|+|+|+|+|+|+|+|+|+|+|+|+|+|+|+|+|+|+|+|+|+|+|+|+|+|+|+|+=@. -@;@|+>@. .         ",
"            . . ,@'@W.W.)@A+!@. ~@W.{@|+|+|+|+|+|+|+|+|+|+|+|+|+|+|+|+|+|+|+|+|+|+|+|+|+|+|+|+|+|+|+|+|+]@^@. /@|+(@. .         ",
"              . . _@X.:@<@[@}@t.|@W.1@|+|+|+|+|+|+|+|+|+|+|+|+|+|+|+|+|+|+|+|+|+|+|+|+|+|+|+|+|+|+|+|+|+|+2@. x+3@|+4@.         ",
"                . . 5@6@A+7@. 8@W.9@|+|+|+|+|+|+|+|+|+|+|+|+|+|+|+|+|+|+|+|+|+|+|+|+|+|+|+|+|+|+|+|+|+|+|+0@a@. b@|+c@. .       ",
"                  . . d@e@f@. g@W. @|+|+|+|+|+|+|+|+|+|+|+|+|+|+|+|+|+|+|+|+|+|+|+|+|+|+|+|+|+|+|+|+|+|+|+|+h@. i@|+j@8 .       ",
"                    . . k@8 t.l@W.m@|+|+|+|+|+|+|+|+|+|+|+|+|+|+|+|+|+|+|+|+|+|+|+|+|+|+|+|+|+|+|+|+|+|+|+|+}+. . n@|+o@.       ",
"                      . . . p@W.W.U+|+|+|+|+|+|+|+|+|+|+|+|+|+|+|+|+|+|+|+|+|+|+|+|+|+|+|+|+|+|+|+|+|+|+|+|+|+q@. r@|+s@. .     ",
"                          . t@W.u@|+|+|+|+|+|+|+|+|+|+|+|+|+|+|+|+|+|+|+|+|+|+|+|+|+|+|+|+|+|+|+|+|+|+|+|+|+|+v@. w@|+x@. .     ",
"                          . y@W.z@|+|+|+|+|+|+|+|+|+|+|+|+|+|+|+|+|+|+|+|+|+|+|+|+|+|+|+|+|+|+|+|+|+|+|+|+|+|+A@. B@|+C@. .     ",
"                        . . D@W.E@|+|+|+|+|+|+|+|+|+|+|+|+|+|+|+|+|+|+|+|+|+|+|+|+|+|+|+|+|+|+|+|+|+|+|+|+|+|+F@. G@|+H@. .     ",
"                        . . 9+W.I@|+|+|+|+|+|+|+|+|+|+|+|+|+|+|+|+|+|+|+|+|+|+|+|+|+|+|+|+|+|+|+|+|+|+|+|+|+|+l+J@K@|+k+. .     ",
"                        . . L@W.{@|+|+|+|+|+|+|+|+|+|+|+|+|+|+|+|+|+|+|+|+|+|+|+|+|+|+|+|+|+|+|+|+|+|+|+|+|+|+|+|+|+|+M@. .     ",
"                        . . L@W.{@|+|+|+|+|+|+|+|+|+|+|+|+|+|+|+|+|+|+|+|+|+|+|+|+|+|+|+|+|+|+|+|+|+|+|+|+|+|+|+|+|+|+M@. .     ",
"                        . . L@W.{@|+|+|+|+|+|+|+|+|+|+|+|+|+|+|+|+|+|+|+|+|+|+|+|+|+|+|+|+|+|+|+|+|+|+|+|+|+|+|+|+|+|+M@. .     ",
"                        . . L@W.N@Q+Q+Q+Q+Q+Q+Q+Q+Q+Q+Q+Q+Q+Q+Q+Q+Q+Q+Q+Q+Q+Q+Q+Q+Q+Q+Q+Q+Q+Q+Q+Q+Q+Q+Q+Q+Q+Q+Q+Q+Q+Q+O@. .     ",
"                        . . L@W.W.W.W.W.W.W.W.W.W.W.W.W.W.W.W.W.W.W.W.W.W.W.W.W.W.W.W.W.W.W.W.W.W.W.W.W.W.W.W.W.W.W.W.V.. .     ",
"                        . . _+P@P@P@P@P@P@P@P@P@P@P@P@P@P@P@P@P@P@P@P@P@P@P@P@P@P@P@P@P@P@P@P@P@P@P@P@P@P@P@P@P@P@P@P@Q@. .     ",
"                      . . . . . . . . . . . . . . . . . . . . . . . . . . . . . . . . . . . . . . . . . . . . . . . . . . . .   ",
"                      . . . . . . . . . . . . . . . . . . . . . . . . . . . . . . . . . . . . . . . . . . . . . . . . . . . .   "};
