/* XPM */
static char * kettle_32px_xpm[] = {
"32 32 252 2",
"  	c None",
". 	c #08080A",
"+ 	c #0C0C0D",
"@ 	c #040404",
"# 	c #0A0B0D",
"$ 	c #090B0B",
"% 	c #060607",
"& 	c #393C41",
"* 	c #616670",
"= 	c #848B97",
"- 	c #A1A9B8",
"; 	c #8B929F",
"> 	c #686E78",
", 	c #41444B",
"' 	c #0A0A0B",
") 	c #080A0A",
"! 	c #0A0B0B",
"~ 	c #27292D",
"{ 	c #979FAD",
"] 	c #A5AEBF",
"^ 	c #9DA6B6",
"/ 	c #969FAF",
"( 	c #9099A8",
"_ 	c #959EAD",
": 	c #9CA5B5",
"< 	c #A3ACBD",
"[ 	c #A3ABBB",
"} 	c #3C3F44",
"| 	c #08090A",
"1 	c #050506",
"2 	c #686D78",
"3 	c #ACB5C5",
"4 	c #97A0AF",
"5 	c #767E8A",
"6 	c #464B52",
"7 	c #2B2E32",
"8 	c #131416",
"9 	c #26282D",
"0 	c #42474E",
"a 	c #6D7480",
"b 	c #939CAC",
"c 	c #A9B2C3",
"d 	c #7C838F",
"e 	c #52565E",
"f 	c #A6AFC0",
"g 	c #8B94A3",
"h 	c #494E55",
"i 	c #080809",
"j 	c #060606",
"k 	c #0A0A0C",
"l 	c #3B3F45",
"m 	c #868E9D",
"n 	c #A2ABBC",
"o 	c #6E747E",
"p 	c #09090A",
"q 	c #202124",
"r 	c #AAB3C4",
"s 	c #2F3136",
"t 	c #0D0F10",
"u 	c #0E1011",
"v 	c #1C1D20",
"w 	c #8992A0",
"x 	c #3A3D43",
"y 	c #090909",
"z 	c #040405",
"A 	c #949BA9",
"B 	c #99A2B2",
"C 	c #51565F",
"D 	c #0E0E10",
"E 	c #101213",
"F 	c #949DAC",
"G 	c #A6AFBF",
"H 	c #050606",
"I 	c #0F0F11",
"J 	c #ABB4C5",
"K 	c #868F9D",
"L 	c #070708",
"M 	c #747C88",
"N 	c #2A2C30",
"O 	c #3A3D42",
"P 	c #A4ADBD",
"Q 	c #646B76",
"R 	c #141516",
"S 	c #111214",
"T 	c #4F545D",
"U 	c #9EA7B7",
"V 	c #5B5F68",
"W 	c #040505",
"X 	c #080808",
"Y 	c #535860",
"Z 	c #7F8794",
"` 	c #373A40",
" .	c #0A0C0C",
"..	c #25282C",
"+.	c #7B828F",
"@.	c #6A6F79",
"#.	c #0D0D0E",
"$.	c #060608",
"%.	c #050505",
"&.	c #0C0D0E",
"*.	c #0B0B0C",
"=.	c #020303",
"-.	c #000000",
";.	c #212226",
">.	c #3B3E44",
",.	c #040606",
"'.	c #707783",
").	c #23252A",
"!.	c #110E07",
"~.	c #0B0904",
"{.	c #060502",
"].	c #090804",
"^.	c #090806",
"/.	c #070603",
"(.	c #080603",
"_.	c #110E08",
":.	c #0A0804",
"<.	c #89753C",
"[.	c #DCBC62",
"}.	c #FCD770",
"|.	c #E4C365",
"1.	c #9E8746",
"2.	c #100E07",
"3.	c #D2B35D",
"4.	c #E7C567",
"5.	c #161309",
"6.	c #050403",
"7.	c #5E4730",
"8.	c #624A32",
"9.	c #0A0705",
"0.	c #110F08",
"a.	c #8F7A3F",
"b.	c #BEA254",
"c.	c #0D0B06",
"d.	c #0B0806",
"e.	c #372A1C",
"f.	c #D09D6A",
"g.	c #AA8157",
"h.	c #0A0803",
"i.	c #E9B627",
"j.	c #FFC72B",
"k.	c #FEC62B",
"l.	c #131005",
"m.	c #040302",
"n.	c #BF9162",
"o.	c #D3A06C",
"p.	c #020202",
"q.	c #181A1C",
"r.	c #040403",
"s.	c #010100",
"t.	c #0E0B04",
"u.	c #0D0B04",
"v.	c #CDA536",
"w.	c #FDCB44",
"x.	c #453813",
"y.	c #020201",
"z.	c #1F2125",
"A.	c #090604",
"B.	c #090705",
"C.	c #474B52",
"D.	c #3D4044",
"E.	c #1B150F",
"F.	c #B48B60",
"G.	c #D3A97D",
"H.	c #D4AB7F",
"I.	c #E6BA8A",
"J.	c #EABD8C",
"K.	c #D9B082",
"L.	c #CEA77C",
"M.	c #2F271E",
"N.	c #282A2C",
"O.	c #5C626B",
"P.	c #0E0A07",
"Q.	c #74583B",
"R.	c #A47A50",
"S.	c #0D0906",
"T.	c #17120D",
"U.	c #BB9063",
"V.	c #E9BC8A",
"W.	c #E9BC8B",
"X.	c #7C644A",
"Y.	c #2B241C",
"Z.	c #070504",
"`.	c #3A2C1D",
" +	c #D29F6B",
".+	c #B37C4A",
"++	c #130E09",
"@+	c #9D7750",
"#+	c #E5B785",
"$+	c #E8BC8B",
"%+	c #7B634A",
"&+	c #D5AC80",
"*+	c #CBA479",
"=+	c #060504",
"-+	c #C29363",
";+	c #C28C59",
">+	c #745030",
",+	c #4F3C29",
"'+	c #DDAD7A",
")+	c #453829",
"!+	c #A28361",
"~+	c #18140E",
"{+	c #0C0A05",
"]+	c #211A11",
"^+	c #B57D4A",
"/+	c #281E14",
"(+	c #B5895D",
"_+	c #E6B987",
":+	c #977A5B",
"<+	c #2C241A",
"[+	c #E1B586",
"}+	c #0B0906",
"|+	c #211810",
"1+	c #79522F",
"2+	c #2C2217",
"3+	c #D8A673",
"4+	c #261E17",
"5+	c #4E3F2F",
"6+	c #120C09",
"7+	c #010000",
"8+	c #6A5036",
"9+	c #DEAE7B",
"0+	c #725C44",
"a+	c #6C5741",
"b+	c #997C5C",
"c+	c #16120D",
"d+	c #100E09",
"e+	c #846444",
"f+	c #E1B17F",
"g+	c #987B5B",
"h+	c #483A2B",
"i+	c #B8946E",
"j+	c #13100C",
"k+	c #17110D",
"l+	c #9C7750",
"m+	c #E3B483",
"n+	c #C39D74",
"o+	c #3E3225",
"p+	c #D1A97D",
"q+	c #080705",
"r+	c #16110C",
"s+	c #A57D54",
"t+	c #E4B684",
"u+	c #DBB183",
"v+	c #030202",
"w+	c #E3B582",
"x+	c #E9BB8A",
"y+	c #DAAF81",
"z+	c #1B140E",
"A+	c #A07952",
"B+	c #CC9B69",
"C+	c #C09262",
"                                . + @ # $                       ",
"                            % & * = - ; > , ' )                 ",
"                        ! ~ { ] ^ / ( _ : < [ } |               ",
"                      1 2 3 4 5 6 7 8 9 0 a b c d %             ",
"                    $ e f g h i .       j k l m n o p           ",
"                    q r ( s t               u v w r x y         ",
"                  z A B C D                   E l F G H         ",
"                  I J K L                       p M G N         ",
"                  O P Q R                       S T U V W       ",
"                X Y Z `  .                        ..+.@.#.      ",
"                $.@ %.&.          | 1 i           *.L =.j       ",
"                  -.              ;.g >.,.            -.        ",
"                  -.              S '.).-.            -.        ",
"                -.-.        !.~.{.].^.]./.(._.          -.      ",
"                -.        :.<.[.}.}.}.}.}.|.1.2.:.      -.      ",
"  -.-.-.        -.      :.3.}.}.}.}.}.}.}.}.}.4.5.      -.      ",
"  6.7.8.9.      -.    0.a.}.}.}.}.}.}.}.}.}.}.}.b.c.    -.      ",
"  d.e.f.g.9.    -.    h.i.j.j.j.j.j.j.j.j.j.j.j.k.l.    -.      ",
"    m.n.o.g.9.p.q.' r.s.t.u.u.u.u.u.u.u.u.u.v.w.x.y.6.% z.p     ",
"    A.g.o.o.g.B.C.D.E.F.G.H.H.H.H.H.H.H.H.H.I.J.K.L.M.N.O.i     ",
"    P.Q.o.o.o.R.S.T.U.V.J.J.J.J.J.J.J.J.J.J.J.J.W.X.H.Y.p.      ",
"    Z.`.o.o. +.+++@+#+J.J.J.J.J.J.J.J.J.J.J.J.J.$+%+&+*+=+      ",
"      Z.-+o.;+>+,+'+J.J.J.J.J.J.J.J.J.J.J.J.J.J.J.J.)+!+%+~+    ",
"      {+]+-+^+/+(+_+J.J.J.J.J.J.J.J.J.J.J.J.J.J.J.J.:+<+[+}+    ",
"        9.|+1+2+3+J.J.J.J.J.J.J.J.J.J.J.J.J.J.J.J.J.$+4+!+5+    ",
"          6+7+8+9+J.J.J.J.J.J.J.J.J.J.J.J.J.J.J.J.J.J.0+a+b+c+  ",
"            d+e+f+J.J.J.J.J.J.J.J.J.J.J.J.J.J.J.J.J.J.g+h+i+j+  ",
"            k+l+m+J.J.J.J.J.J.J.J.J.J.J.J.J.J.J.J.J.J.n+o+p+q+  ",
"            r+s+t+J.J.J.J.J.J.J.J.J.J.J.J.J.J.J.J.J.J.J.J.u+v+  ",
"            r+s+w+x+x+x+x+x+x+x+x+x+x+x+x+x+x+x+x+x+x+x+x+y+v+  ",
"            z+A+B+B+B+B+B+B+B+B+B+B+B+B+B+B+B+B+B+B+B+B+B+C+m.  ",
"            -.-.-.-.-.-.-.-.-.-.-.-.-.-.-.-.-.-.-.-.-.-.-.-.-.  "};
